<?xml version="1.0" encoding="UTF-8"?>
<svg id="Layer_1"
     xmlns="http://www.w3.org/2000/svg"
     xmlns:xlink="http://www.w3.org/1999/xlink"
     viewBox="0 0 399.28 158.18">

  <defs>
    <!-- Define a mask for the letters/paths -->
    <mask id="lettersMask">
      <!-- White rectangle covers the entire viewBox 
           so everything is initially opaque -->
      <rect width="100%" height="100%" fill="white" />

      <!-- Draw your letter paths in black 
           so they punch holes in the black background -->
      <path fill="black" d="M158.59,103.63h.16c12.48-.03,24.06-3.4,34.44-10.04,2.59-1.7,4.03-3.5,4.38-5.51l1.98-10.52.1-.99v-.28c0-1.71-.7-2.73-1.3-3.29-.8-.75-1.88-1.12-3.07-1.04-2.24.17-3.63,2.13-5.14,5.24-2.1,4.3-6.01,8.07-11.63,11.19-5.72,3.18-11.61,4.8-17.49,4.81h-.09c-10.11,0-18.17-3.79-24.63-11.57-6.53-7.88-9.86-18.26-9.89-30.87-.02-10.78,2.86-19.34,8.57-25.46,5.74-6.14,13.46-9.14,23.61-9.16h.08c12.62,0,22.4,6.35,29.9,19.39,1.23,2.18,2.76,4.49,5.36,4.27,1.44-.14,2.67-.96,3.38-2.23l.17-.3.48-1.6-2.37-17.74c-.62-4.64-3.31-5.14-4.45-5.14h-.01c-1.08,0-2.09.48-3.19,1.23l-2.93-1.49c-7.99-4.27-16.85-6.43-26.33-6.43h-.13c-14.02.03-25.84,4.84-35.14,14.28-9.29,9.44-13.99,21.41-13.95,35.58.03,14.19,4.64,25.82,13.7,34.57,9,8.68,20.93,13.09,35.45,13.09Z"/>
      <path fill="black"  d="M212.95,16.22c2.48.25,4.14.99,5.06,2.26.73,1.01,1.61,3.17,1.62,7.71l.13,58.02c.01,5.89-.67,7.59-.88,7.97-.37.67-1.7,1.3-3.58,1.69-3.97.85-4.27,3.67-4.27,4.51,0,1.29.49,2.45,1.37,3.27.91.86,2.15,1.29,3.67,1.29.16,0,.33,0,.5-.01,1-.05,2.29-.19,3.95-.42,3.22-.46,7.11-.69,11.54-.7,4.13-.01,9.14.17,14.76.54,2.94.22,4.95.28,6.16.32,9.9-.02,19.16-2.69,27.51-7.93,6.71-4.2,12.01-10.01,15.76-17.27,3.72-7.2,5.6-15.21,5.58-23.79-.03-13.37-4.41-24.51-13.02-33.13-9.39-9.39-23.45-14.09-41.83-14.09-3.15,0-6.1.12-8.8.36l-5.96.59c-2.28.21-5.59.32-9.82.33-3.25,0-4.05-.03-4.35-.05l-5.09-.25h-.16c-1.25,0-2.3.32-3.13.94-1.07.81-1.66,2.03-1.66,3.44,0,.67.25,4.01,4.94,4.41ZM235.7,21.03c0-2.23.47-2.81.48-2.82.32-.25,2.35-1.52,10.99-1.54h.11c8.76,0,16.27,2.19,22.34,6.51,4.97,3.51,8.95,8.44,11.82,14.67,2.92,6.32,4.41,13.36,4.43,20.93.03,13.8-4.35,23.24-13.4,28.88-5.33,3.36-11.43,5.07-18.13,5.09-2.24,0-5.08-.3-8.41-.89-3.33-.6-6.08-1.3-8.17-2.08-1.59-.6-1.91-1.36-1.91-2.48l-.14-66.26h0Z"/>
      <path fill="black"  d="M302.11,92.75c-.92-1.02-2.39-1.32-3.63-.75-.27.13-27.59,12.68-64.25,18.83-33.59,5.64-82.17,6.92-122.8-19.05-6.45-4.12-12.7-7.68-18.78-10.72,4.75-7.81,7.15-16.98,7.13-27.39-.03-13.77-4.72-25.24-13.93-34.09-9.19-8.82-21.1-13.27-35.25-13.24-6.84.01-13.61,1.32-20.12,3.89-6.56,2.59-12.07,6.14-16.39,10.57-4.09,4.2-7.37,9.46-9.75,15.64-2.37,6.15-3.56,12.45-3.55,18.73.02,10.83,2.65,20.2,7.82,27.99C2.97,88.68.49,93.71.31,94.09c-.72,1.5-.14,3.29,1.32,4.09,1.46.79,3.28.31,4.15-1.1.07-.11,2.44-3.72,8.72-6.77.05.05.09.09.14.14,9.11,8.91,21.12,13.42,35.69,13.42h.15c10.82-.02,20.28-2.76,28.23-8.14,8.72,3.37,18.4,7.79,29.15,13.5,23,12.22,48.99,16.6,74.43,16.6,37.62,0,74.03-9.58,97.81-17.54,17.71-5.93,21.59-10.56,22.36-11.84.71-1.17.56-2.67-.35-3.69ZM52.94,93.89h-.08c-7.95,0-14.77-2.53-20.73-7.69,8.53-.42,19.53.77,33.59,5.03-3.81,1.77-8.05,2.66-12.78,2.67ZM30.29,70.68c-2.89.82-5.53,1.84-7.96,2.98-3.44-6.65-5.19-14.28-5.21-22.79-.02-10.52,2.66-18.95,7.97-25.05,5.28-6.06,12.27-9.02,21.37-9.04h.1c10.73,0,19.46,3.84,26.68,11.74,7.22,7.9,10.89,17.97,10.91,29.92.01,6.44-1.15,12.21-3.47,17.26-18.93-7.48-35.8-9.18-50.39-5.02Z"/>
      <path fill="black"  d="M351.47,124.86c-.01-.06-.04-.12-.04-.18-.28-2.33-.63-4.66-.83-6.99-.23-2.63-.4-5.27-.5-7.91-.12-2.97-.15-5.95-.18-8.93-.05-5.89.01-11.78-.21-17.67-.08-2.09-.17-4.19-.34-6.27-.2-2.42-.48-4.84-.77-7.26-.3-2.47-.79-4.91-1.41-7.32-1.01-3.93-2.33-7.76-3.76-11.55-1.55-4.08-3.15-8.13-4.68-12.21-1.67-4.44-3.14-8.94-4.08-13.6-.67-3.32-1.05-6.67-.96-10.06,0-.07,0-.14.01-.21.05.06.07.11.09.17.8,2.21,1.56,4.44,2.42,6.63,1.92,4.9,4.29,9.58,7.23,13.96,1.79,2.66,3.76,5.18,5.73,7.7,2.41,3.08,4.72,6.24,6.68,9.63.02.03.04.06.07.1.06-.05.12-.1.17-.14.99-.86,1.96-1.72,2.96-2.57,3.34-2.82,6.82-5.46,10.27-8.13,3.4-2.63,6.75-5.32,9.94-8.2,4.49-4.04,8.63-8.42,12.5-13.05.05-.06.1-.12.2-.22-.03.14-.04.22-.06.29-.14.55-.28,1.11-.44,1.66-.99,3.48-2.46,6.77-4.18,9.95-1.95,3.61-4.19,7.03-6.47,10.44-2.27,3.4-4.57,6.8-6.79,10.24-1.97,3.05-3.71,6.24-5.11,9.6-1.31,3.14-2.24,6.38-2.56,9.77-.24,2.54-.14,5.07.18,7.59.34,2.67.91,5.29,1.59,7.9,1.01,3.83,2.26,7.59,3.48,11.35,1.32,4.07,2.63,8.15,3.57,12.34.5,2.23.88,4.47,1.08,6.74.17,1.99.19,3.98,0,5.97-.05.48-.11.95-.17,1.43-.02,0-.04,0-.05,0-5.9-12.08-11.8-24.15-17.71-36.23-.02,0-.03.01-.05.02-2.26,11.75-4.53,23.5-6.79,35.25-.01,0-.02,0-.03,0ZM367.05,35.16c0-5.1-4.13-9.23-9.24-9.23-5.1,0-9.22,4.13-9.22,9.23,0,5.1,4.15,9.23,9.24,9.22,5.08,0,9.22-4.15,9.22-9.23ZM397.25,24.55c-1.28-.9-2.57-1.79-3.88-2.65-.09.35-.18.71-.28,1.07-.24.83-.5,1.67-.8,2.51.39.24.77.49,1.16.74-.93,4.26-1.65,8.56-2.17,12.9-.48,4.04-.11,8.22.04,12.27.35,9.58.94,19.17.74,28.75-4.42-3.59-9.74-7.06-15.67-5.58-2.44.61-4.48,2.05-6.53,3.45-.57.39-1.14.79-1.71,1.19.03.23.05.46.08.69.14,1.09.32,2.22.56,3.41.54-.36,1.09-.71,1.64-1.07,1.95-1.25,3.87-2.41,6.11-2.98.84-.21,1.73-.36,2.6-.39,3.79-.13,7.22,1.91,10.13,4.16,2.16,1.68,4.42,3.17,6.99,4.13,1.01-20.41,2.02-40.82,3.03-61.22-.68-.45-1.36-.91-2.03-1.38ZM346.49,91.83c-3.23,1.15-6.68,1.93-10.16,1.78-3.16-.13-6.15-1.08-8.94-2.54,1.16-6.29,2.05-12.62,2.73-18.98.65-6.06.32-12.25.22-18.34-.22-13.84-.74-27.69-.43-41.53.65,1,1.35,2.06,2.1,3.13,0-.17,0-.34.01-.51,0-.09,0-.17.01-.23,0-.02,0-.03,0-.05l.14-2.09.22-3.54c-2.01-3.1-4.12-6.14-6.52-8.96-.37,7.52-.74,15.03-1.12,22.55-1.18,23.74-2.35,47.48-3.53,71.22.7.39,1.39.77,2.08,1.16,2.53,1.39,5.19,2.5,8.01,3,2.79.49,5.66.39,8.45-.12,1.57-.29,3.15-.72,4.67-1.22,1.27-.42,2.52-.89,3.76-1.4,0-1.33,0-2.67-.02-4.01-.57.23-1.14.44-1.71.65ZM389.37,19.4c-2.63-1.54-5.4-2.9-8.32-3.75-1.48-.43-3.02-.73-4.55-.89-5.78-.59-11.53.5-17.11,2.21-.42.13-.84.26-1.25.4-4.07,1.34-8.51,3.64-12.76,2.95-.88-.14-1.75-.42-2.58-.77-3.62-1.53-6.4-4.77-8.69-8.05l1.1,2.43c.09.16.14.29.16.36h0c.25.7.5,1.41.74,2.09.53,1.49,1.08,3.03,1.66,4.51.25.64.51,1.27.77,1.9,2.11,1.73,4.47,3.01,7.11,3.42,2.29.35,4.33-.34,6.5-1.12,2.32-.84,4.59-1.81,6.9-2.65,5.1-1.87,10.35-3.09,15.77-2.99,4.57.08,8.87,1.46,12.92,3.48.86-.97,1.71-1.95,2.56-2.96-.31-.19-.61-.37-.92-.55Z"/>
      <path fill="black" d="M43.31,156.33c-1.61,1.05-3.57,1.66-5.71,1.66-5.79,0-10.08-4.32-10.08-9.71v-.05c0-5.39,4.34-9.76,10.13-9.76s10.08,4.32,10.08,9.71v.05c0,1.98-.59,3.86-1.66,5.39l1.93,1.64-2.63,2.92-2.06-1.85ZM39.56,153.03l-2.6-2.23,2.63-2.95,2.55,2.31c.21-.56.32-1.18.32-1.82v-.05c0-2.73-1.96-5.12-4.85-5.12s-4.75,2.36-4.75,5.07v.05c0,2.71,1.93,5.09,4.8,5.09.7,0,1.34-.13,1.9-.35Z"/>
      <path fill="black" d="M50.2,149.39v-10.54h5.28v10.43c0,2.71,1.37,4,3.46,4s3.46-1.23,3.46-3.86v-10.56h5.28v10.4c0,6.06-3.46,8.71-8.79,8.71s-8.69-2.71-8.69-8.58Z"/>
      <path fill="black"  d="M70.86,138.85h5.23v18.77h-5.23v-18.77Z"/>
      <path fill="black"  d="M78.88,148.29v-.05c0-5.47,4.21-9.76,9.89-9.76,3.83,0,6.3,1.61,7.96,3.92l-3.91,3.03c-1.07-1.34-2.31-2.2-4.1-2.2-2.63,0-4.48,2.22-4.48,4.96v.05c0,2.82,1.85,5.01,4.48,5.01,1.96,0,3.11-.91,4.24-2.28l3.91,2.79c-1.77,2.44-4.16,4.24-8.31,4.24-5.36,0-9.68-4.1-9.68-9.71Z"/>
      <path fill="black"  d="M99.09,138.85h5.2v7.61l6.46-7.61h6.17l-7.1,8.07,7.35,10.7h-6.25l-4.72-6.97-1.9,2.12v4.85h-5.2v-18.77Z"/>
      <path fill="black"  d="M125.44,148.29v-.05c0-5.47,4.21-9.76,9.89-9.76,3.83,0,6.3,1.61,7.96,3.92l-3.91,3.03c-1.07-1.34-2.31-2.2-4.1-2.2-2.63,0-4.48,2.22-4.48,4.96v.05c0,2.82,1.85,5.01,4.48,5.01,1.96,0,3.11-.91,4.24-2.28l3.91,2.79c-1.77,2.44-4.16,4.24-8.31,4.24-5.36,0-9.68-4.1-9.68-9.71Z"/>
      <path fill="black" d="M145.65,138.85h5.2v7.02h6.68v-7.02h5.2v18.77h-5.2v-7.13h-6.68v7.13h-5.2v-18.77Z"/>
      <path fill="black" d="M172.54,138.72h5.01l7.99,18.9h-5.58l-1.37-3.35h-7.24l-1.34,3.35h-5.47l7.99-18.9ZM177.1,150.22l-2.09-5.33-2.12,5.33h4.21Z"/>
      <path fill="black"  d="M187.36,138.85h4.85l7.72,9.92v-9.92h5.15v18.77h-4.56l-8.02-10.29v10.29h-5.15v-18.77Z"/>
      <path fill="black"  d="M207.76,148.29v-.05c0-5.47,4.29-9.76,10.11-9.76,3.3,0,5.63,1.02,7.61,2.74l-3.06,3.67c-1.34-1.13-2.68-1.77-4.53-1.77-2.71,0-4.8,2.28-4.8,5.15v.05c0,3.03,2.12,5.2,5.09,5.2,1.26,0,2.23-.27,3-.78v-2.28h-3.7v-3.81h8.63v8.44c-1.98,1.64-4.75,2.9-8.15,2.9-5.84,0-10.21-4.02-10.21-9.71Z"/>
      <path fill="black" d="M229.02,138.85h15.09v4.42h-9.95v2.84h9.01v4.1h-9.01v2.98h10.08v4.42h-15.23v-18.77Z"/>
      <path fill="black"  d="M254.32,138.85h7.24c6.7,0,10.59,3.86,10.59,9.28v.05c0,5.42-3.94,9.44-10.7,9.44h-7.13v-18.77ZM261.64,153.01c3.11,0,5.17-1.72,5.17-4.75v-.05c0-3-2.06-4.75-5.17-4.75h-2.12v9.54h2.12Z"/>
      <path fill="black" d="M274.93,138.85h5.23v18.77h-5.23v-18.77Z"/>
      <path fill="black"  d="M282.17,154.83l2.9-3.46c1.85,1.47,3.91,2.25,6.09,2.25,1.39,0,2.14-.48,2.14-1.29v-.05c0-.78-.62-1.21-3.16-1.8-4-.91-7.08-2.04-7.08-5.9v-.05c0-3.49,2.76-6.01,7.27-6.01,3.19,0,5.68.86,7.72,2.49l-2.6,3.67c-1.72-1.21-3.59-1.85-5.25-1.85-1.26,0-1.88.54-1.88,1.21v.05c0,.86.64,1.23,3.24,1.82,4.32.94,7,2.33,7,5.84v.05c0,3.83-3.03,6.11-7.59,6.11-3.32,0-6.49-1.04-8.79-3.11Z"/>
      <path fill="black" d="M301.07,138.85h8.04c4.75,0,7.8,2.44,7.8,6.59v.05c0,4.42-3.41,6.76-8.07,6.76h-2.57v5.36h-5.2v-18.77ZM308.74,148.18c1.85,0,2.98-.97,2.98-2.44v-.05c0-1.61-1.13-2.47-3-2.47h-2.44v4.96h2.47Z"/>
      <path fill="black"  d="M319.11,138.85h5.2v14.21h9.09v4.56h-14.29v-18.77Z"/>
      <path fill="black" d="M342.11,138.72h5.01l7.99,18.9h-5.58l-1.37-3.35h-7.24l-1.34,3.35h-5.47l7.99-18.9ZM346.67,150.22l-2.09-5.33-2.12,5.33h4.21Z"/>
      <path fill="black"  d="M359.4,150.59l-7.13-11.74h5.92l3.86,6.84,3.89-6.84h5.82l-7.13,11.66v7.1h-5.23v-7.02Z"/>
    </mask>
  </defs>

  <!-- Draw one big black rectangle 
       that is made transparent by the mask's "holes" -->
  <rect width="100%" height="100%" fill="black" mask="url(#lettersMask)" />

</svg>