<?xml version="1.0" encoding="UTF-8"?>
<svg id="Layer_1" xmlns="http://www.w3.org/2000/svg" version="1.1" xmlns:xlink="http://www.w3.org/1999/xlink" viewBox="0 0 1526 748">
  <!-- Generator: Adobe Illustrator 29.2.1, SVG Export Plug-In . SVG Version: 2.1.0 Build 116)  -->
  <path d="M1122.1,585.2h-8v16.3h8.1c6.1,0,9.8-3.2,9.8-8v-.2c0-5.3-3.7-8.1-9.9-8.1Z"/>
  <polygon points="674.9 608.2 688.8 608.2 681.9 590.6 674.9 608.2"/>
  <path d="M229.5,585c-9.4,0-15.6,7.8-15.6,16.7v.2c0,8.9,6.4,16.8,15.8,16.8s4.4-.4,6.3-1.1l-8.6-7.3,8.7-9.7,8.4,7.6c.7-1.9,1.1-3.9,1.1-6v-.2c0-9-6.4-16.9-16-16.9Z"/>
  <path d="M258.9,168.8h-.3c-30,0-53,9.8-70.4,29.8-17.5,20.1-26.3,47.8-26.2,82.5,0,28,5.8,53.1,17.2,75,8-3.8,16.7-7.1,26.2-9.8,48-13.7,103.6-8.1,165.9,16.5,7.6-16.6,11.5-35.6,11.4-56.8,0-39.3-12.2-72.5-35.9-98.5-23.8-26-52.5-38.7-87.8-38.7Z"/>
  <path d="M967.1,586h-7v31.4h7c10.2,0,17-5.6,17-15.6v-.2c0-9.9-6.8-15.6-17-15.6Z"/>
  <path d="M211.4,397.4c19.6,17,42.1,25.3,68.2,25.3h.3c15.6,0,29.5-2.9,42.1-8.8-46.3-14-82.5-17.9-110.6-16.5Z"/>
  <path d="M888.5,409.2c6.9,2.6,15.9,4.9,26.9,6.9,11,2,20.3,2.9,27.7,2.9,22.1,0,42.2-5.7,59.7-16.8,29.8-18.6,44.2-49.7,44.1-95.1,0-24.9-5-48.1-14.6-68.9-9.5-20.5-22.6-36.8-38.9-48.3-20-14.2-44.7-21.4-73.6-21.4h-.4c-28.4,0-35.1,4.2-36.2,5.1,0,0-1.6,2-1.6,9.3h0s.5,218.2.5,218.2c0,3.7,1,6.2,6.3,8.2Z"/>
  <path d="M0,0v748h1526V0H0ZM1234.4,178c2.7,1.2,5.6,2,8.5,2.5,14,2.3,28.6-5.3,42-9.7,1.4-.4,2.7-.9,4.1-1.3,18.4-5.6,37.3-9.2,56.3-7.3,5,.5,10.1,1.5,15,2.9,9.6,2.8,18.7,7.3,27.4,12.3,1,.6,2,1.2,3,1.8-2.8,3.3-5.6,6.6-8.4,9.7-13.3-6.6-27.5-11.2-42.5-11.4-17.8-.3-35.1,3.7-51.9,9.9-7.6,2.8-15.1,6-22.7,8.7-7.1,2.6-13.9,4.9-21.4,3.7-8.7-1.3-16.5-5.5-23.4-11.3-.9-2.1-1.7-4.1-2.5-6.2-1.9-4.9-3.7-10-5.5-14.9-.8-2.2-1.6-4.6-2.5-6.8h0c0-.3-.2-.7-.5-1.2l-3.6-8c7.6,10.8,16.7,21.5,28.6,26.5ZM1314.2,229.3c0,16.7-13.6,30.4-30.4,30.4-16.8,0-30.4-13.6-30.4-30.4,0-16.8,13.6-30.4,30.4-30.4,16.8,0,30.4,13.6,30.4,30.4ZM1175,187.8c1.2-24.7,2.5-49.5,3.7-74.2,7.9,9.3,14.8,19.3,21.5,29.5l-.7,11.6-.5,6.9c0,0,0,.1,0,.2,0,.2,0,.5,0,.7,0,.6,0,1.1,0,1.7-2.5-3.5-4.8-7-6.9-10.3-1,45.6.7,91.2,1.4,136.7.3,20,1.4,40.4-.7,60.4-2.2,20.9-5.2,41.8-9,62.5,9.2,4.8,19,7.9,29.4,8.4,11.5.5,22.8-2.1,33.4-5.9,1.9-.7,3.8-1.4,5.6-2.1,0,4.4,0,8.8,0,13.2-4.1,1.7-8.2,3.2-12.4,4.6-5,1.7-10.2,3.1-15.4,4-9.2,1.7-18.6,2-27.8.4-9.3-1.6-18-5.3-26.4-9.9-2.3-1.3-4.6-2.6-6.9-3.8,3.9-78.2,7.7-156.3,11.6-234.5ZM796,141.1c2.7-2.1,6.2-3.1,10.3-3.1h.5s16.7.8,16.7.8c1,0,3.6.2,14.3.2,13.9,0,24.8-.4,32.4-1.1l19.6-1.9c8.9-.8,18.6-1.1,29-1.2,60.5,0,106.8,15.5,137.7,46.4,28.3,28.4,42.8,65.1,42.9,109.1,0,28.2-6.1,54.6-18.4,78.3-12.3,23.9-29.8,43-51.9,56.9-27.5,17.3-58,26.1-90.6,26.1-4-.1-10.6-.3-20.3-1-18.5-1.2-35-1.8-48.6-1.8-14.6,0-27.4.8-38,2.3-5.5.8-9.7,1.2-13,1.4-.6,0-1.1,0-1.6,0-5,0-9.1-1.4-12.1-4.3-2.9-2.7-4.5-6.5-4.5-10.8,0-2.8,1-12.1,14.1-14.9,6.2-1.3,10.6-3.4,11.8-5.6.7-1.2,2.9-6.8,2.9-26.2l-.4-191c0-15-2.9-22.1-5.3-25.4-3-4.2-8.5-6.6-16.7-7.4-15.4-1.3-16.3-12.3-16.3-14.5,0-4.6,1.9-8.7,5.5-11.3ZM511.9,180.8c30.6-31.1,69.6-46.9,115.7-47h.4c31.2,0,60.4,7.1,86.7,21.2l9.7,4.9c3.6-2.5,6.9-4,10.5-4h0c3.7,0,12.6,1.7,14.6,16.9l7.8,58.4-1.6,5.3-.5,1c-2.3,4.2-6.4,6.9-11.1,7.3-8.5.7-13.6-6.9-17.6-14.1-24.7-42.9-56.9-63.9-98.5-63.9h-.3c-33.4,0-58.8,9.9-77.7,30.2-18.8,20.1-28.3,48.3-28.2,83.8,0,41.5,11,75.7,32.6,101.6,21.3,25.6,47.8,38.1,81.1,38.1h.3c19.4,0,38.7-5.4,57.6-15.8,18.5-10.3,31.4-22.7,38.3-36.9,5-10.2,9.5-16.7,16.9-17.2,3.9-.3,7.5,1,10.1,3.4,2,1.8,4.3,5.2,4.3,10.8v.9s-.4,3.2-.4,3.2l-6.5,34.6c-1.1,6.6-5.9,12.5-14.4,18.1-34.2,21.9-72.3,33-113.4,33.1h-.5c-47.8,0-87.1-14.5-116.7-43.1-29.8-28.8-45-67.1-45.1-113.8-.1-46.7,15.4-86.1,45.9-117.1ZM255.1,634.4l-6.8-6.1c-5.3,3.4-11.7,5.5-18.8,5.5-19.1,0-33.2-14.2-33.2-32v-.2c0-17.7,14.3-32.1,33.4-32.1s33.2,14.2,33.2,32v.2c0,6.5-1.9,12.7-5.5,17.7l6.4,5.4-8.7,9.6ZM328.5,605c0,19.9-11.4,28.7-29,28.7s-28.6-8.9-28.6-28.2v-34.7h17.4v34.3c0,8.9,4.5,13.2,11.4,13.2s11.4-4.1,11.4-12.7v-34.8h17.4v34.3ZM356.2,632.6h-17.2v-61.8h17.2v61.8ZM271.9,455.6h-.5c-48,0-87.5-14.9-117.5-44.2-.2-.1-.3-.3-.4-.5-20.7,10-28.5,21.9-28.7,22.3-2.9,4.6-8.9,6.2-13.7,3.6-4.8-2.6-6.7-8.5-4.3-13.5.6-1.3,8.8-17.8,27.3-35.9-17-25.6-25.7-56.5-25.7-92.2,0-20.7,3.9-41.4,11.7-61.7,7.8-20.4,18.7-37.7,32.1-51.5,14.2-14.6,32.4-26.3,54-34.8,21.4-8.5,43.7-12.8,66.2-12.8,46.6,0,85.8,14.6,116.1,43.6,30.3,29.1,45.8,66.9,45.9,112.2,0,34.3-7.8,64.4-23.5,90.2,20,10,40.6,21.7,61.8,35.3,133.8,85.5,293.7,81.3,404.4,62.7,120.7-20.3,210.6-61.6,211.5-62,4.1-1.9,8.9-.9,12,2.5,3,3.4,3.5,8.3,1.2,12.2-2.5,4.2-15.3,19.4-73.6,39-78.3,26.2-198.2,57.8-322,57.8s-169.3-14.4-245.1-54.7c-35.4-18.8-67.3-33.3-96-44.5-26.2,17.7-57.3,26.7-92.9,26.8ZM397.2,633.8c-17.7,0-31.9-13.5-31.9-32v-.2c0-18,13.9-32.1,32.6-32.1s20.7,5.3,26.2,12.9l-12.9,10c-3.5-4.4-7.6-7.2-13.5-7.2-8.7,0-14.7,7.3-14.7,16.3v.2c0,9.3,6.1,16.5,14.7,16.5s10.2-3,13.9-7.5l12.9,9.2c-5.8,8-13.7,13.9-27.4,13.9ZM470.9,632.6l-15.5-23-6.3,7v16h-17.1v-61.8h17.1v25.1l21.3-25.1h20.3l-23.4,26.6,24.2,35.2h-20.6ZM550.6,633.8c-17.7,0-31.9-13.5-31.9-32v-.2c0-18,13.9-32.1,32.6-32.1s20.7,5.3,26.2,12.9l-12.9,10c-3.5-4.4-7.6-7.2-13.5-7.2-8.7,0-14.7,7.3-14.7,16.3v.2c0,9.3,6.1,16.5,14.7,16.5s10.2-3,13.9-7.5l12.9,9.2c-5.8,8-13.7,13.9-27.4,13.9ZM641.5,632.6h-17.1v-23.5h-22v23.5h-17.1v-61.8h17.1v23.1h22v-23.1h17.1v61.8ZM698.2,632.6l-4.5-11h-23.8l-4.4,11h-18l26.3-62.2h16.5l26.3,62.2h-18.4ZM780.9,632.6h-15l-26.4-33.9v33.9h-16.9v-61.8h16l25.4,32.7v-32.7h16.9v61.8ZM850.2,624.3c-6.5,5.4-15.6,9.5-26.8,9.5-19.2,0-33.6-13.2-33.6-32v-.2c0-18,14.1-32.1,33.3-32.1s18.5,3.4,25.1,9l-10.1,12.1c-4.4-3.7-8.8-5.8-14.9-5.8-8.9,0-15.8,7.5-15.8,16.9v.2c0,10,7,17.1,16.8,17.1s7.3-.9,9.9-2.6v-7.5h-12.2v-12.5h28.4v27.8ZM909.9,632.6h-50.1v-61.8h49.7v14.6h-32.8v9.4h29.7v13.5h-29.7v9.8h33.2v14.6ZM1001.7,601.5c0,17.8-13,31.1-35.2,31.1h-23.5v-61.8h23.8c22.1,0,34.9,12.7,34.9,30.5v.2ZM1028.1,632.6h-17.2v-61.8h17.2v61.8ZM1088.7,613.5c0,12.6-10,20.1-25,20.1s-21.4-3.4-29-10.2l9.5-11.4c6.1,4.9,12.9,7.4,20,7.4s7.1-1.6,7.1-4.2v-.2c0-2.6-2-4-10.4-5.9-13.2-3-23.3-6.7-23.3-19.4v-.2c0-11.5,9.1-19.8,23.9-19.8s18.7,2.8,25.4,8.2l-8.6,12.1c-5.6-4-11.8-6.1-17.3-6.1s-6.2,1.8-6.2,4v.2c0,2.8,2.1,4.1,10.7,6,14.2,3.1,23,7.7,23,19.2v.2ZM1149.1,592.7c0,14.6-11.2,22.2-26.6,22.2h-8.5v17.7h-17.1v-61.8h26.5c15.6,0,25.7,8,25.7,21.7v.2ZM1203.4,632.6h-47.1v-61.8h17.1v46.8h29.9v15ZM1256.6,632.6l-4.5-11h-23.8l-4.4,11h-18l26.3-62.2h16.5l26.3,62.2h-18.4ZM1306.3,609.2v23.4h-17.2v-23.1l-23.5-38.7h19.5l12.7,22.5,12.8-22.5h19.2l-23.5,38.4ZM1344.6,523.2c-.1,1.6-.4,3.1-.6,4.7,0,0-.1,0-.2,0-19.4-39.8-38.9-79.5-58.3-119.3h-.2c-7.5,38.8-14.9,77.4-22.4,116.1,0,0,0,0-.1,0,0-.2-.1-.4-.1-.6-.9-7.7-2.1-15.3-2.7-23-.8-8.7-1.3-17.4-1.6-26.1-.4-9.8-.5-19.6-.6-29.4-.2-19.4,0-38.8-.7-58.2-.3-6.9-.6-13.8-1.1-20.7-.7-8-1.6-15.9-2.5-23.9-1-8.1-2.6-16.2-4.6-24.1-3.3-12.9-7.7-25.6-12.4-38-5.1-13.4-10.4-26.8-15.4-40.2-5.5-14.6-10.3-29.4-13.5-44.8-2.2-10.9-3.5-22-3.1-33.1,0-.2,0-.5,0-.7.2.2.2.4.3.6,2.6,7.3,5.1,14.6,8,21.8,6.3,16.2,14.1,31.5,23.8,46,5.9,8.7,12.4,17,18.9,25.3,7.9,10.1,15.5,20.5,22,31.7,0,.1.1.2.2.3.2-.2.4-.3.6-.5,3.2-2.8,6.5-5.7,9.8-8.4,11-9.3,22.4-18,33.8-26.8,11.2-8.7,22.2-17.5,32.7-27,14.8-13.3,28.4-27.7,41.2-43,.2-.2.3-.4.7-.7,0,.5-.1.7-.2,1-.5,1.8-.9,3.6-1.4,5.5-3.3,11.5-8.1,22.3-13.8,32.8-6.4,11.9-13.8,23.1-21.3,34.4-7.5,11.2-15,22.4-22.3,33.7-6.5,10.1-12.2,20.5-16.8,31.6-4.3,10.3-7.4,21-8.4,32.2-.8,8.3-.4,16.7.6,25,1.1,8.8,3,17.4,5.2,26,3.3,12.6,7.4,25,11.5,37.4,4.4,13.4,8.7,26.8,11.8,40.6,1.6,7.3,2.9,14.7,3.6,22.2.6,6.6.6,13.1,0,19.7ZM1410.4,400.5c-8.5-3.2-15.9-8.1-23-13.6-9.6-7.4-20.9-14.1-33.4-13.7-2.9,0-5.8.6-8.6,1.3-7.4,1.9-13.7,5.7-20.1,9.8-1.8,1.2-3.6,2.3-5.4,3.5-.8-3.9-1.4-7.6-1.8-11.2,0-.8-.2-1.5-.3-2.3,1.9-1.3,3.7-2.6,5.6-3.9,6.8-4.6,13.5-9.4,21.5-11.4,19.5-4.9,37.1,6.6,51.6,18.4.7-31.6-1.3-63.1-2.4-94.7-.5-13.4-1.7-27.1-.1-40.4,1.7-14.3,4.1-28.4,7.1-42.5-1.3-.8-2.5-1.6-3.8-2.4,1-2.8,1.9-5.5,2.6-8.3.3-1.2.6-2.4.9-3.5,4.3,2.8,8.6,5.8,12.8,8.7,2.2,1.5,4.4,3,6.7,4.5-3.3,67.2-6.7,134.4-10,201.6Z"/>
  <polygon points="1233.3 608.2 1247.1 608.2 1240.2 590.6 1233.3 608.2"/>
</svg>